<svg width="40" height="40" viewBox="0 0 40 40" fill="none" xmlns="http://www.w3.org/2000/svg">
<g clip-path="url(#clip0_5_254)">
<path d="M29.216 24.3438C29.216 26.0238 29.694 26.6938 30.944 26.6938C33.73 26.6938 35.504 23.1438 35.504 17.2398C35.504 8.21578 28.928 3.89578 20.718 3.89578C12.272 3.89578 4.59 9.55978 4.59 20.2638C4.59 30.4878 11.31 36.0558 21.63 36.0558C25.134 36.0558 27.486 35.6718 31.084 34.4718L31.856 37.6858C28.304 38.8398 24.508 39.1738 21.582 39.1738C8.046 39.1738 0.795998 31.7338 0.795998 20.2618C0.795998 8.69378 9.198 0.821777 20.766 0.821777C32.814 0.821777 39.196 8.02178 39.196 16.8538C39.196 24.3418 36.846 30.0538 29.454 30.0538C26.092 30.0538 23.886 28.7098 23.598 25.7318C22.734 29.0438 20.43 30.0538 17.308 30.0538C13.132 30.0538 9.628 26.8358 9.628 20.3578C9.628 13.8298 12.702 9.79778 18.222 9.79778C21.15 9.79778 22.974 10.9498 23.786 12.7738L25.18 10.2298H29.212V24.3438H29.216ZM23.314 18.0078C23.314 15.3698 21.344 14.2638 19.712 14.2638C17.936 14.2638 15.97 15.7018 15.97 19.9278C15.97 23.2878 17.458 25.1598 19.712 25.1598C21.296 25.1598 23.314 24.1518 23.314 21.3678V18.0078Z" fill="#A5D7E8"/>
</g>
<defs>
<clipPath id="clip0_5_254">
<rect width="40" height="40" fill="white"/>
</clipPath>
</defs>
</svg>
