<svg width="40" height="40" viewBox="0 0 40 40" fill="none" xmlns="http://www.w3.org/2000/svg">
<g clip-path="url(#clip0_5_258)">
<path fill-rule="evenodd" clip-rule="evenodd" d="M29.695 11.6483C29.1067 10.8017 27.5333 9.61167 24.985 10.125C23.4983 10.4233 22.61 11.1583 22.045 12.1283C21.4433 13.1617 21.1517 14.5667 21.1517 16.2017C21.1517 16.6437 20.9761 17.0676 20.6635 17.3802C20.3509 17.6927 19.927 17.8683 19.485 17.8683C15.5417 17.8683 11.7883 16.6967 8.63 13.5283C8.39155 14.8138 8.29763 16.122 8.35 17.4283C8.43833 19.2383 8.87 21.0533 9.895 22.6083C10.9033 24.1367 12.5617 25.5367 15.335 26.4167C15.6068 26.5029 15.8518 26.6573 16.0469 26.8653C16.2419 27.0733 16.3803 27.3278 16.4488 27.6045C16.5174 27.8813 16.5138 28.171 16.4384 28.4459C16.3631 28.7209 16.2184 28.9719 16.0183 29.175C15.13 30.0862 14.1232 30.8738 13.025 31.5167C14.7917 31.7 16.495 31.7133 18.075 31.57C21.275 31.28 23.8233 30.365 25.4167 29.07C28.7717 26.35 30.5667 22.2933 30.2333 15.4967C30.1767 14.38 31.255 13.175 31.775 12.26C30.99 12.4067 30.2033 12.38 29.695 11.6483ZM7.65666 8.30667C7.95842 8.2716 8.26402 8.31967 8.54043 8.44569C8.81685 8.57171 9.05357 8.77088 9.225 9.02167C11.685 12.62 14.6383 14.1167 17.9167 14.4567C18.0767 13.055 18.455 11.67 19.1667 10.45C20.21 8.66 21.9067 7.34334 24.33 6.85667C27.68 6.18334 30.23 7.39667 31.7083 8.88167L34.695 8.32334C35.0075 8.26478 35.3303 8.29684 35.6252 8.41575C35.9201 8.53466 36.1748 8.73544 36.3593 8.99442C36.5438 9.25339 36.6504 9.55973 36.6665 9.8773C36.6825 10.1949 36.6074 10.5104 36.45 10.7867L33.5833 15.8233C33.845 23.0917 31.825 28.165 27.5183 31.66C25.235 33.5133 21.965 34.565 18.3767 34.89C14.76 35.2167 10.6717 34.8217 6.60833 33.635C6.26115 33.5337 5.95633 33.3223 5.73987 33.0326C5.52341 32.7429 5.40706 32.3906 5.40838 32.0289C5.4097 31.6673 5.52861 31.3159 5.74717 31.0278C5.96574 30.7396 6.27209 30.5304 6.62 30.4317C8.66333 29.85 10.22 29.3483 11.625 28.47C9.62666 27.41 8.155 26.0233 7.11333 24.4433C5.66666 22.2467 5.13 19.7967 5.02333 17.5883C4.91666 15.38 5.235 13.3333 5.57166 11.8583C5.76333 11.0167 5.98666 10.1733 6.295 9.36667C6.40376 9.08232 6.58833 8.83319 6.82867 8.64632C7.06901 8.45946 7.35428 8.34199 7.65666 8.30667Z" fill="#A5D7E8"/>
</g>
<defs>
<clipPath id="clip0_5_258">
<rect width="40" height="40" fill="white"/>
</clipPath>
</defs>
</svg>
