<svg width="40" height="40" viewBox="0 0 40 40" fill="none" xmlns="http://www.w3.org/2000/svg">
<path d="M9.80666 31.0885C9.30666 30.7552 8.87667 30.3302 8.37333 29.7285C8.11208 29.4087 7.85319 29.0871 7.59667 28.7635C6.825 27.8052 6.33833 27.3618 5.83667 27.1802C5.62558 27.1103 5.43061 26.9989 5.26324 26.8526C5.09586 26.7062 4.95946 26.5278 4.86206 26.328C4.76467 26.1281 4.70826 25.9107 4.69614 25.6887C4.68403 25.4667 4.71645 25.2445 4.79152 25.0352C4.86658 24.8259 4.98276 24.6338 5.13322 24.4701C5.28367 24.3064 5.46537 24.1744 5.66759 24.082C5.86982 23.9896 6.08849 23.9386 6.31073 23.932C6.53298 23.9254 6.7543 23.9633 6.96167 24.0435C8.215 24.4935 9.06333 25.2685 10.2067 26.6902C10.05 26.4952 10.7733 27.4018 10.9283 27.5885C11.245 27.9668 11.4783 28.1968 11.6617 28.3185C12.0017 28.5468 12.6417 28.6452 13.5783 28.5518C13.6183 27.9152 13.735 27.2968 13.915 26.7268C8.96833 25.5168 6.16833 22.3268 6.16833 16.0668C6.16833 14.0002 6.785 12.1402 7.93166 10.5802C7.56833 9.09017 7.62333 7.2885 8.435 5.26017C8.52711 5.03073 8.66912 4.82465 8.85072 4.65688C9.03233 4.48911 9.24899 4.36385 9.485 4.29017C9.62 4.25017 9.69667 4.23184 9.83167 4.21184C11.17 4.00517 13.06 4.49517 15.5233 6.0385C16.9913 5.69529 18.4941 5.52304 20.0017 5.52517C21.5217 5.52517 23.0333 5.6985 24.475 6.0385C26.9367 4.4835 28.8317 3.9935 30.1783 4.21184C30.32 4.2335 30.4417 4.26184 30.5417 4.29517C30.773 4.37146 30.9849 4.49756 31.1623 4.66457C31.3397 4.83159 31.4783 5.03546 31.5683 5.26184C32.38 7.2885 32.435 9.0885 32.0717 10.5785C33.2233 12.1385 33.835 13.9868 33.835 16.0668C33.835 22.3285 31.045 25.5085 26.0983 26.7202C26.3067 27.4118 26.415 28.1835 26.415 29.0202C26.415 30.1285 26.4117 31.1852 26.4033 32.3702C26.4033 32.6868 26.4 33.0268 26.395 33.5468C26.7693 33.6283 27.1042 33.8362 27.3432 34.1356C27.5821 34.435 27.7107 34.8076 27.7072 35.1907C27.7037 35.5738 27.5683 35.9439 27.3238 36.2389C27.0794 36.5339 26.7408 36.7356 26.365 36.8102C24.465 37.1885 23.0583 35.9235 23.0583 34.2685L23.0617 33.5235L23.07 32.3485C23.0783 31.1702 23.0833 30.1202 23.0833 29.0202C23.0833 27.8585 22.7767 27.1002 22.3733 26.7518C21.2717 25.8018 21.83 23.9952 23.275 23.8335C28.2183 23.2785 30.5017 21.3635 30.5017 16.0668C30.5017 14.4752 29.9817 13.1602 28.98 12.0602C28.7692 11.8284 28.628 11.5419 28.5726 11.2336C28.5172 10.9252 28.5498 10.6075 28.6667 10.3168C28.9433 9.62684 29.06 8.72184 28.825 7.62684L28.8083 7.63184C27.99 7.8635 26.9583 8.36517 25.7117 9.2135C25.5106 9.34993 25.2822 9.44076 25.0424 9.47962C24.8026 9.51849 24.5572 9.50445 24.3233 9.4385C22.9165 9.04898 21.4631 8.85329 20.0033 8.85684C18.52 8.85684 17.05 9.0535 15.6833 9.44017C15.4506 9.50534 15.2065 9.51913 14.9679 9.48056C14.7293 9.442 14.502 9.35201 14.3017 9.21684C13.0467 8.37184 12.0117 7.87184 11.185 7.6385C10.9467 8.72684 11.065 9.6285 11.34 10.3168C11.4563 10.6074 11.4885 10.9249 11.4328 11.2329C11.3771 11.541 11.2358 11.8271 11.025 12.0585C10.03 13.1502 9.50333 14.4885 9.50333 16.0652C9.50333 21.3518 11.7883 23.2785 16.7067 23.8318C18.1483 23.9935 18.71 25.7935 17.615 26.7452C17.2933 27.0252 16.8983 27.9652 16.8983 29.0185V34.2685C16.8983 35.9102 15.5083 37.1435 13.6317 36.8152C13.2513 36.7484 12.9059 36.5516 12.6545 36.2583C12.4032 35.9651 12.2614 35.5937 12.2536 35.2076C12.2457 34.8215 12.3722 34.4446 12.6114 34.1414C12.8506 33.8381 13.1876 33.6274 13.565 33.5452V31.8952C12.0483 31.9968 10.7967 31.7485 9.80833 31.0868" fill="#A5D7E8"/>
</svg>
