<svg width="40" height="40" viewBox="0 0 40 40" fill="none" xmlns="http://www.w3.org/2000/svg">
<path d="M11.5667 8.33354C11.5662 9.21759 11.2146 10.0653 10.5892 10.6901C9.96374 11.3149 9.11572 11.6656 8.23166 11.6652C7.34761 11.6648 6.49994 11.3131 5.87513 10.6877C5.25032 10.0623 4.89955 9.21426 4.89999 8.3302C4.90044 7.44615 5.25205 6.59848 5.87748 5.97367C6.50292 5.34886 7.35094 4.99809 8.23499 4.99854C9.11905 4.99898 9.96672 5.35059 10.5915 5.97602C11.2163 6.60146 11.5671 7.44948 11.5667 8.33354ZM11.6667 14.1335H4.99999V35.0002H11.6667V14.1335ZM22.2 14.1335H15.5667V35.0002H22.1333V24.0502C22.1333 17.9502 30.0833 17.3835 30.0833 24.0502V35.0002H36.6667V21.7835C36.6667 11.5002 24.9 11.8835 22.1333 16.9335L22.2 14.1335Z" fill="#A5D7E8"/>
</svg>
