<svg width="47" height="47" viewBox="0 0 47 47" fill="none" xmlns="http://www.w3.org/2000/svg">
<g clip-path="url(#clip0_2_89)">
<path d="M33.8738 20.6699C33.7391 20.6699 33.6069 20.6328 33.4919 20.5627L30.5015 18.8105C30.3865 18.7455 30.2911 18.6509 30.2252 18.5364C30.1594 18.422 30.1254 18.2919 30.127 18.1598V14.7024C30.127 14.4351 30.2651 14.1825 30.5015 14.0444L33.508 12.3083C33.6224 12.244 33.7514 12.2102 33.8826 12.2102C34.0138 12.2102 34.1428 12.244 34.2571 12.3083L37.271 14.0371C37.5075 14.1678 37.6529 14.4189 37.6529 14.6951V18.176C37.653 18.3088 37.6185 18.4393 37.5529 18.5547C37.4872 18.6701 37.3926 18.7663 37.2783 18.834L34.2718 20.5701C34.15 20.6372 34.0128 20.6716 33.8738 20.6699ZM31.6398 17.7251L33.8811 19.0411L36.1298 17.7413V15.1328L33.8811 13.8403L31.6251 15.1401L31.6398 17.7251ZM10.2886 26.5303C9.49252 26.5449 9.20171 25.4816 9.90671 25.0997L12.5387 23.5854C12.6248 23.5274 12.722 23.4877 12.8241 23.4688C12.9262 23.4499 13.0311 23.4522 13.1323 23.4755C13.2335 23.4988 13.3288 23.5427 13.4124 23.6044C13.4959 23.6661 13.5659 23.7443 13.6179 23.8342C13.67 23.9241 13.703 24.0237 13.7149 24.1268C13.7269 24.23 13.7175 24.3345 13.6873 24.4339C13.6572 24.5333 13.607 24.6254 13.5398 24.7046C13.4725 24.7837 13.3898 24.8482 13.2966 24.8941L10.6646 26.4157C10.5508 26.4836 10.4209 26.5229 10.2886 26.5303ZM9.71577 31.1113C8.91236 31.1421 8.62889 30.0553 9.34124 29.6881L14.3908 26.7961C14.758 26.5508 15.2471 26.6654 15.4689 27.0487C15.6906 27.4321 15.5379 27.9138 15.1399 28.1048L10.083 31.0114C9.96953 31.0716 9.84408 31.1058 9.71577 31.1113ZM10.5339 34.883C9.7378 34.8904 9.46314 33.8343 10.1593 33.4598L16.2635 30.0406C16.3502 29.983 16.4478 29.9439 16.5504 29.9258C16.6529 29.9077 16.758 29.911 16.8592 29.9354C16.9604 29.9598 17.0555 30.0048 17.1385 30.0676C17.2214 30.1305 17.2906 30.2098 17.3415 30.3005C17.3928 30.3917 17.4247 30.4924 17.4355 30.5964C17.4462 30.7004 17.4355 30.8055 17.404 30.9052C17.3724 31.0049 17.3208 31.097 17.2522 31.1759C17.1836 31.2548 17.0995 31.3188 17.0052 31.3639L10.9084 34.7758C10.7955 34.8448 10.6661 34.8818 10.5339 34.883ZM25.3741 3.89388L21.6259 1.62172L2.69221 12.5757L2.73039 15.7041L9.89055 19.8357L14.5715 17.1655L15.5893 12.185C15.6108 12.0794 15.6547 11.9797 15.7181 11.8925C15.7814 11.8053 15.8627 11.7328 15.9565 11.6797L32.4344 2.19453C32.5492 2.12669 32.68 2.09091 32.8133 2.09091C32.9466 2.09091 33.0775 2.12669 33.1923 2.19453L45.4857 9.30916C45.7222 9.44722 45.8676 9.69103 45.8676 9.96716L45.8441 24.1949C45.8451 24.3288 45.8103 24.4604 45.7431 24.5761C45.6759 24.6919 45.5789 24.7875 45.4622 24.8529L29.1606 34.2162C29.0735 34.267 28.977 34.2994 28.8769 34.3112C28.7769 34.3231 28.6754 34.3143 28.5789 34.2853L23.6292 32.8929L18.9939 35.5851V43.8086L21.7022 45.3773L40.6359 34.4233V30.0171L42.1428 29.0301V34.8522C42.1445 34.9852 42.1106 35.1163 42.0448 35.232C41.979 35.3476 41.8835 35.4437 41.7683 35.5102L22.0856 46.9003C21.9708 46.9682 21.84 47.004 21.7066 47.004C21.5733 47.004 21.4425 46.9682 21.3277 46.9003L17.8541 44.9043C17.7383 44.8397 17.6418 44.7453 17.5747 44.6309C17.5075 44.5165 17.4722 44.3863 17.4722 44.2537V35.1577C17.4734 35.0262 17.5084 34.8972 17.574 34.7832C17.6397 34.6692 17.7336 34.5741 17.8468 34.507L23.1401 31.4315C23.2273 31.3777 23.3249 31.3431 23.4264 31.33C23.528 31.3168 23.6311 31.3254 23.7291 31.3551L28.6861 32.7548L44.3445 23.7734L44.368 10.4166L32.8251 3.73819L17.0213 12.8488L15.9888 17.7985C15.9688 17.9037 15.9262 18.0033 15.8641 18.0905C15.802 18.1777 15.7218 18.2505 15.629 18.3038L10.2901 21.372C10.1753 21.4398 10.0444 21.4756 9.91111 21.4756C9.7778 21.4756 9.64694 21.4398 9.53218 21.372L1.61414 16.8203C1.50046 16.7557 1.40592 16.6622 1.34013 16.5492C1.27435 16.4362 1.23966 16.3078 1.23961 16.177L1.17793 12.1527C1.17465 12.0183 1.20772 11.8856 1.27364 11.7685C1.33956 11.6513 1.4359 11.5542 1.55246 11.4873L21.2587 0.104502C21.3736 0.0332028 21.5061 -0.00457764 21.6413 -0.00457764C21.7765 -0.00457764 21.909 0.0332028 22.0239 0.104502L26.8664 3.042L25.3741 3.89388Z" fill="#A5D7E8"/>
</g>
<defs>
<clipPath id="clip0_2_89">
<rect width="47" height="47" fill="white"/>
</clipPath>
</defs>
</svg>
