<svg width="47" height="47" viewBox="0 0 47 47" fill="none" xmlns="http://www.w3.org/2000/svg">
<path d="M28.8701 27.4932C30.2624 28.0439 31.5322 28.7783 32.6797 29.6963C33.8271 30.6143 34.8063 31.6699 35.6172 32.8633C36.4281 34.0566 37.063 35.3494 37.522 36.7417C37.981 38.134 38.2028 39.5951 38.1875 41.125H35.25C35.25 39.5033 34.944 37.981 34.332 36.5581C33.7201 35.1353 32.8786 33.896 31.8076 32.8403C30.7367 31.7847 29.4897 30.9432 28.0669 30.3159C26.644 29.6886 25.1217 29.375 23.5 29.375C21.8783 29.375 20.356 29.681 18.9331 30.293C17.5103 30.9049 16.271 31.7464 15.2153 32.8174C14.1597 33.8883 13.3182 35.1353 12.6909 36.5581C12.0636 37.981 11.75 39.5033 11.75 41.125H8.8125C8.8125 39.6104 9.03434 38.1569 9.47803 36.7646C9.92171 35.3724 10.549 34.0796 11.3599 32.8862C12.1707 31.6929 13.1499 30.6372 14.2974 29.7192C15.4448 28.8013 16.7223 28.0592 18.1299 27.4932C17.0436 26.667 16.2021 25.6496 15.6055 24.4409C15.0088 23.2323 14.7028 21.9395 14.6875 20.5625C14.6875 19.3538 14.917 18.214 15.376 17.1431C15.835 16.0721 16.4622 15.1388 17.2578 14.3433C18.0534 13.5477 18.9867 12.9128 20.0576 12.4385C21.1286 11.9642 22.276 11.7347 23.5 11.75C24.7087 11.75 25.8485 11.9795 26.9194 12.4385C27.9904 12.8975 28.9237 13.5247 29.7192 14.3203C30.5148 15.1159 31.1497 16.0568 31.624 17.1431C32.0983 18.2293 32.3278 19.3691 32.3125 20.5625C32.3125 21.9395 32.0142 23.2323 31.4175 24.4409C30.8208 25.6496 29.9717 26.667 28.8701 27.4932ZM17.625 20.5625C17.625 21.3734 17.778 22.1307 18.084 22.8345C18.39 23.5382 18.8107 24.1655 19.3462 24.7163C19.8817 25.2671 20.5013 25.6878 21.2051 25.9785C21.9089 26.2692 22.6738 26.4222 23.5 26.4375C24.3109 26.4375 25.0682 26.2845 25.772 25.9785C26.4757 25.6725 27.103 25.2518 27.6538 24.7163C28.2046 24.1808 28.6253 23.5612 28.916 22.8574C29.2067 22.1536 29.3597 21.3887 29.375 20.5625C29.375 19.7516 29.222 18.9943 28.916 18.2905C28.61 17.5868 28.1893 16.9595 27.6538 16.4087C27.1183 15.8579 26.4987 15.4372 25.7949 15.1465C25.0911 14.8558 24.3262 14.7028 23.5 14.6875C22.6891 14.6875 21.9318 14.8405 21.228 15.1465C20.5243 15.4525 19.897 15.8732 19.3462 16.4087C18.7954 16.9442 18.3747 17.5638 18.084 18.2676C17.7933 18.9714 17.6403 19.7363 17.625 20.5625ZM47 5.875V35.25H40.8726C40.7043 34.7451 40.513 34.2479 40.2988 33.7583C40.0846 33.2687 39.8475 32.7868 39.5874 32.3125H44.0625V8.8125H2.9375V32.3125H7.4126C7.15251 32.7868 6.91536 33.2687 6.70117 33.7583C6.48698 34.2479 6.29574 34.7451 6.12744 35.25H0V5.875H47Z" fill="#A5D7E8"/>
</svg>
