<svg width="47" height="47" viewBox="0 0 47 47" fill="none" xmlns="http://www.w3.org/2000/svg">
<path d="M6.45466 40.3456L18.9175 27.8827M34.6116 22.3407L30.881 33.5325C30.8214 33.7119 30.7195 33.8743 30.5838 34.0059C30.4481 34.1375 30.2827 34.2344 30.1015 34.2884L7.23212 41.0858C7.02609 41.147 6.80721 41.1505 6.59932 41.096C6.39144 41.0414 6.20249 40.9309 6.05306 40.7764C5.90363 40.6219 5.79943 40.4294 5.7518 40.2198C5.70418 40.0102 5.71495 39.7916 5.78295 39.5877L13.209 17.3136C13.2622 17.1537 13.3492 17.0071 13.4641 16.8837C13.579 16.7604 13.719 16.6632 13.8748 16.5988L24.4243 12.2552C24.6388 12.1667 24.8747 12.1436 25.1023 12.1889C25.3299 12.2342 25.5389 12.3459 25.7031 12.5098L34.3276 21.1382C34.4819 21.2925 34.5902 21.4867 34.6404 21.6991C34.6906 21.9115 34.6806 22.1336 34.6116 22.3407Z" stroke="#A5D7E8" stroke-width="1.125" stroke-linecap="round" stroke-linejoin="round"/>
<path d="M34.8427 21.6513L40.3808 16.1112C41.1151 15.3767 41.5276 14.3807 41.5276 13.3421C41.5276 12.3035 41.1151 11.3075 40.3808 10.573L36.2292 6.41744C35.8654 6.05358 35.4336 5.76493 34.9583 5.568C34.483 5.37107 33.9736 5.26971 33.4591 5.26971C32.9446 5.26971 32.4352 5.37107 31.9599 5.568C31.4846 5.76493 31.0527 6.05358 30.689 6.41744L25.1509 11.9576M23.0711 23.7272C22.7983 23.4544 22.4743 23.2381 22.1179 23.0906C21.7614 22.943 21.3794 22.8671 20.9936 22.8672C20.6078 22.8673 20.2258 22.9434 19.8694 23.0911C19.513 23.2388 19.1892 23.4553 18.9165 23.7281C18.6438 24.001 18.4275 24.3249 18.2799 24.6814C18.1324 25.0378 18.0565 25.4198 18.0565 25.8056C18.0566 26.1914 18.1327 26.5734 18.2804 26.9298C18.4282 27.2862 18.6446 27.61 18.9175 27.8827C19.4685 28.4335 20.2159 28.7429 20.995 28.7427C21.7741 28.7425 22.5213 28.4328 23.0721 27.8818C23.6229 27.3307 23.9322 26.5834 23.932 25.8043C23.9319 25.0251 23.6222 24.278 23.0711 23.7272Z" stroke="#A5D7E8" stroke-width="1.125" stroke-linecap="round" stroke-linejoin="round"/>
</svg>
