<svg width="1465" height="804" viewBox="0 0 1465 804" fill="none" xmlns="http://www.w3.org/2000/svg">
<g style="mix-blend-mode:soft-light" opacity="0.3">
<line x1="287.681" y1="-220.068" x2="1705.82" y2="514.454" stroke="white"/>
<line x1="223.093" y1="-95.2933" x2="1641.23" y2="639.228" stroke="white"/>
<line x1="158.506" y1="29.4814" x2="1576.64" y2="764.003" stroke="white"/>
<line x1="93.9189" y1="154.256" x2="1512.06" y2="888.778" stroke="white"/>
<line x1="29.332" y1="279.031" x2="1447.47" y2="1013.55" stroke="white"/>
<line x1="-35.2551" y1="403.806" x2="1382.88" y2="1138.33" stroke="white"/>
<line x1="-99.8423" y1="528.581" x2="1318.29" y2="1263.1" stroke="white"/>
<line x1="-164.43" y1="653.355" x2="1253.71" y2="1387.88" stroke="white"/>
<line x1="-31.6964" y1="1060.88" x2="702.825" y2="-357.259" stroke="white"/>
<line x1="93.0785" y1="1125.46" x2="827.6" y2="-292.672" stroke="white"/>
<line x1="217.853" y1="1190.05" x2="952.375" y2="-228.085" stroke="white"/>
<line x1="342.628" y1="1254.64" x2="1077.15" y2="-163.498" stroke="white"/>
<line x1="467.403" y1="1319.23" x2="1201.92" y2="-98.9107" stroke="white"/>
<line x1="592.178" y1="1383.81" x2="1326.7" y2="-34.3236" stroke="white"/>
<line x1="716.953" y1="1448.4" x2="1451.47" y2="30.2636" stroke="white"/>
<line x1="841.727" y1="1512.99" x2="1576.25" y2="94.8508" stroke="white"/>
</g>
</svg>
